<?xml version="1.0" encoding="UTF-8" standalone="no"?>
<!DOCTYPE svg PUBLIC "-//W3C//DTD SVG 1.1//EN" "http://www.w3.org/Graphics/SVG/1.1/DTD/svg11.dtd"
[
<!ATTLIST g
  xmlns:vectornator CDATA #FIXED "http://vectornator.io"
  vectornator:layerName CDATA #IMPLIED >
<!ATTLIST g
  xmlns:vectornator CDATA #FIXED "http://vectornator.io"
  vectornator:mask CDATA #IMPLIED >
<!ATTLIST text
  xmlns:vectornator CDATA #FIXED "http://vectornator.io"
  vectornator:width CDATA #IMPLIED >
<!ATTLIST text
  xmlns:vectornator CDATA #FIXED "http://vectornator.io"
  vectornator:text CDATA #IMPLIED >

<!ATTLIST path
  xmlns:vectornator CDATA #FIXED "http://vectornator.io"
  vectornator:blendMode CDATA #IMPLIED >
<!ATTLIST path
  xmlns:vectornator CDATA #FIXED "http://vectornator.io"
  vectornator:shadowColor CDATA #IMPLIED >
<!ATTLIST path
  xmlns:vectornator CDATA #FIXED "http://vectornator.io"
  vectornator:shadowOpacity CDATA #IMPLIED >
<!ATTLIST path
  xmlns:vectornator CDATA #FIXED "http://vectornator.io"
  vectornator:shadowRadius CDATA #IMPLIED >
<!ATTLIST path
  xmlns:vectornator CDATA #FIXED "http://vectornator.io"
  vectornator:shadowOffset CDATA #IMPLIED >
<!ATTLIST path
  xmlns:vectornator CDATA #FIXED "http://vectornator.io"
  vectornator:shadowAngle CDATA #IMPLIED >

<!ATTLIST image
  xmlns:vectornator CDATA #FIXED "http://vectornator.io"
  vectornator:blendMode CDATA #IMPLIED >
<!ATTLIST image
  xmlns:vectornator CDATA #FIXED "http://vectornator.io"
  vectornator:shadowColor CDATA #IMPLIED >
<!ATTLIST image
  xmlns:vectornator CDATA #FIXED "http://vectornator.io"
  vectornator:shadowOpacity CDATA #IMPLIED >
<!ATTLIST image
  xmlns:vectornator CDATA #FIXED "http://vectornator.io"
  vectornator:shadowRadius CDATA #IMPLIED >
<!ATTLIST image
  xmlns:vectornator CDATA #FIXED "http://vectornator.io"
  vectornator:shadowOffset CDATA #IMPLIED >
<!ATTLIST image
  xmlns:vectornator CDATA #FIXED "http://vectornator.io"
  vectornator:shadowAngle CDATA #IMPLIED >

<!ATTLIST g
  xmlns:vectornator CDATA #FIXED "http://vectornator.io"
  vectornator:blendMode CDATA #IMPLIED >
<!ATTLIST g
  xmlns:vectornator CDATA #FIXED "http://vectornator.io"
  vectornator:shadowColor CDATA #IMPLIED >
<!ATTLIST g
  xmlns:vectornator CDATA #FIXED "http://vectornator.io"
  vectornator:shadowOpacity CDATA #IMPLIED >
<!ATTLIST g
  xmlns:vectornator CDATA #FIXED "http://vectornator.io"
  vectornator:shadowRadius CDATA #IMPLIED >
<!ATTLIST g
  xmlns:vectornator CDATA #FIXED "http://vectornator.io"
  vectornator:shadowOffset CDATA #IMPLIED >
<!ATTLIST g
  xmlns:vectornator CDATA #FIXED "http://vectornator.io"
  vectornator:shadowAngle CDATA #IMPLIED >

<!ENTITY % SVG.filter.extra.content  "| feDropShadow" >
<!ELEMENT feDropShadow EMPTY>
<!ATTLIST feDropShadow
  xmlns:svg CDATA #FIXED "http://www.w3.org/Graphics/SVG/1.1/DTD/svg11.dtd"
  dx CDATA #IMPLIED>
<!ATTLIST feDropShadow
  xmlns:svg CDATA #FIXED "http://www.w3.org/Graphics/SVG/1.1/DTD/svg11.dtd"
  dy CDATA #IMPLIED>
<!ATTLIST feDropShadow
  xmlns:svg CDATA #FIXED "http://www.w3.org/Graphics/SVG/1.1/DTD/svg11.dtd"
  stdDeviation CDATA #IMPLIED>
<!ATTLIST feDropShadow
  xmlns:svg CDATA #FIXED "http://www.w3.org/Graphics/SVG/1.1/DTD/svg11.dtd"
  flood-opacity CDATA #IMPLIED>
<!ATTLIST feDropShadow
  xmlns:svg CDATA #FIXED "http://www.w3.org/Graphics/SVG/1.1/DTD/svg11.dtd"
  in CDATA #IMPLIED>
<!ATTLIST feDropShadow
  xmlns:svg CDATA #FIXED "http://www.w3.org/Graphics/SVG/1.1/DTD/svg11.dtd"
  result CDATA #IMPLIED>
<!ATTLIST feDropShadow
  xmlns:svg CDATA #FIXED "http://www.w3.org/Graphics/SVG/1.1/DTD/svg11.dtd"
  flood-color CDATA #IMPLIED>
]
>
<!-- Created with Vectornator (http://vectornator.io/) -->
<svg height="100%" stroke-miterlimit="10" style="fill-rule:nonzero;clip-rule:evenodd;stroke-linecap:round;stroke-linejoin:round;" version="1.1" viewBox="0 0 500 500" width="100%" xml:space="preserve" xmlns="http://www.w3.org/2000/svg" xmlns:vectornator="http://vectornator.io" xmlns:xlink="http://www.w3.org/1999/xlink">
<defs/>
<g id="Слой-1" vectornator:layerName="Слой 1">
<g opacity="1">
<path d="M39.8883 126.48L39.8883 373.922L254.154 497.54L468.42 373.922L468.42 126.48L254.154 2.75938L39.8883 126.48Z" fill="#ffffff" fill-rule="evenodd" opacity="1" stroke="#aa7d50" stroke-linecap="butt" stroke-linejoin="miter" stroke-width="2.4565"/>
<path d="M39.8883 126.48L39.8883 373.922L254.154 497.54L468.42 373.922L468.42 126.48L254.154 2.75938L39.8883 126.48Z" fill="#ffffff" fill-rule="evenodd" opacity="1" stroke="#aa7d50" stroke-linecap="butt" stroke-linejoin="miter" stroke-width="2.4565"/>
</g>
<g opacity="1">
<g opacity="1">
<path d="M99.1967 300.22C103.076 302.364 106.853 304.507 110.63 306.753C114.305 308.897 118.081 311.143 121.858 313.388C121.756 317.574 121.756 321.759 121.756 325.842C121.756 330.027 121.858 334.213 121.858 338.398L121.858 339.113C121.756 339.317 121.552 339.521 121.246 339.623C120.94 339.827 120.633 339.929 120.327 340.031C116.856 342.073 113.386 344.114 109.915 346.156C106.342 348.198 102.872 350.239 99.2988 352.281C95.5218 350.137 91.7449 347.993 87.9679 345.748C84.1909 343.502 80.414 341.358 76.637 339.113C76.7391 334.621 76.7391 330.436 76.7391 326.557C76.7391 322.576 76.637 318.697 76.637 314.818L76.637 313.388C76.7391 313.286 76.9433 313.184 77.2495 312.878C77.5558 312.674 77.862 312.47 78.0662 312.368C79.6994 311.449 81.3327 310.53 82.966 309.611C84.4972 308.693 86.1305 307.774 87.8658 306.855C89.8053 305.63 91.7449 304.507 93.5823 303.487C95.5218 302.364 97.3592 301.343 99.1967 300.22ZM83.3743 317.165L83.3743 335.438C86.0284 336.969 88.7845 338.5 91.4386 340.031C94.0927 341.562 96.6447 343.094 99.2988 344.625C101.749 343.196 104.097 341.869 106.342 340.542C108.588 339.215 110.936 337.888 113.284 336.458C113.386 336.458 113.488 336.356 113.692 336.254C113.896 336.152 114.1 336.05 114.305 335.948C114.509 335.846 114.713 335.642 114.917 335.54C115.121 335.438 115.223 335.233 115.223 335.233C115.325 335.029 115.325 334.723 115.325 334.213C115.325 333.804 115.223 333.396 115.223 332.988L115.223 317.165C112.671 315.634 110.017 314.103 107.261 312.47C104.607 310.938 101.953 309.407 99.2988 307.876C96.6447 309.305 93.8885 310.836 91.2345 312.47C88.7845 314.001 86.1305 315.634 83.3743 317.165ZM106.24 322.269C106.24 323.596 106.24 324.821 106.138 326.148C106.138 327.373 106.138 328.7 106.24 330.027C105.117 330.742 103.994 331.457 102.872 332.069C101.749 332.681 100.524 333.396 99.5029 334.009C98.278 333.396 97.1551 332.681 96.0322 332.069C94.9093 331.457 93.7864 330.742 92.6636 330.129C92.5615 328.7 92.5615 327.271 92.5615 326.148C92.5615 324.923 92.5615 323.596 92.6636 322.269C93.6844 321.657 94.8072 320.942 96.0322 320.228C97.2572 319.513 98.38 318.901 99.5029 318.186C100.626 318.799 101.749 319.513 102.872 320.126C103.994 320.84 105.117 321.555 106.24 322.269ZM92.5615 330.027C93.5823 330.64 94.6031 331.15 95.6239 331.763C96.6447 332.375 97.5634 332.886 98.4821 333.294C98.6863 333.396 98.8904 333.498 98.9925 333.6C99.0946 333.702 99.1967 333.804 99.2988 333.804L99.2988 326.25C98.278 325.536 97.1551 324.821 96.0322 324.209C94.9093 323.596 93.7865 322.882 92.6636 322.167L92.6636 330.027L92.5615 330.027ZM99.1967 318.492C98.1759 319.105 97.1551 319.819 96.0322 320.432C94.9093 321.044 93.8885 321.759 92.7657 322.371C93.7865 322.984 94.9093 323.698 96.0322 324.311C97.1551 324.923 98.278 325.638 99.4008 326.25C100.422 325.638 101.545 324.923 102.667 324.311C103.79 323.698 104.913 322.984 105.934 322.371C104.811 321.759 103.79 321.044 102.667 320.432C101.545 319.717 100.422 319.105 99.1967 318.492ZM99.4008 326.353L99.4008 333.906C100.524 333.294 101.647 332.579 102.769 331.967C103.892 331.354 105.015 330.64 106.036 330.027C106.036 328.7 106.036 327.475 106.138 326.148C106.138 324.923 106.138 323.596 106.036 322.269C104.913 322.984 103.79 323.698 102.667 324.311C101.647 324.923 100.524 325.638 99.4008 326.353Z" fill="#000000" fill-rule="evenodd" opacity="1" stroke="none"/>
<path d="M133.802 290.216L133.802 308.489C136.558 307.059 139.314 305.528 141.866 303.997C144.418 302.466 147.072 300.935 149.624 299.506C152.482 301.037 155.341 302.67 158.199 304.201C161.057 305.732 163.915 307.366 166.774 309.101L172.286 312.47L172.286 338.5C171.367 339.113 170.448 339.623 169.53 340.133C168.611 340.644 167.59 341.256 166.569 341.767C163.813 343.298 160.955 344.931 158.199 346.564C155.341 348.198 152.584 349.831 149.828 351.566C146.051 349.321 142.274 347.177 138.497 345.033C134.72 342.889 130.944 340.746 127.167 338.5L127.167 311.755C127.167 307.468 127.167 303.18 127.269 298.893C127.269 294.606 127.269 290.523 127.167 286.643L127.167 286.439C129.616 287.562 131.76 288.889 133.802 290.216ZM149.93 306.957C147.276 308.386 144.52 309.918 141.866 311.551C139.212 313.184 136.558 314.715 133.802 316.247L133.802 334.519C136.456 336.05 139.212 337.581 141.866 339.113C144.52 340.644 147.072 342.175 149.726 343.706C152.38 342.277 155.136 340.746 157.791 339.113C160.445 337.581 163.099 336.05 165.855 334.417L165.855 316.145C163.201 314.613 160.547 313.082 157.893 311.551C155.239 310.02 152.584 308.489 149.93 306.957Z" fill="#000000" fill-rule="evenodd" opacity="1" stroke="none"/>
<path d="M200.97 300.22C204.849 302.364 208.626 304.507 212.403 306.753C216.078 308.897 219.855 311.143 223.632 313.388C223.53 317.574 223.53 321.759 223.53 325.842C223.53 330.027 223.632 334.213 223.632 338.398L223.632 339.113C223.53 339.317 223.326 339.521 223.02 339.623C222.713 339.827 222.407 339.929 222.101 340.031C218.63 342.073 215.159 344.114 211.689 346.156C208.116 348.198 204.645 350.239 201.072 352.281C197.295 350.137 193.518 347.993 189.742 345.748C185.965 343.502 182.188 341.358 178.411 339.113C178.513 334.621 178.513 330.436 178.513 326.557C178.513 322.576 178.411 318.697 178.411 314.818L178.411 313.388C178.513 313.286 178.717 313.184 179.023 312.878C179.329 312.674 179.636 312.47 179.84 312.368C181.473 311.449 183.106 310.53 184.74 309.611C186.271 308.693 187.904 307.774 189.639 306.855C191.579 305.63 193.518 304.507 195.356 303.487C197.295 302.364 199.133 301.343 200.97 300.22ZM185.148 317.165L185.148 335.438C187.802 336.969 190.558 338.5 193.212 340.031C195.866 341.562 198.418 343.094 201.072 344.625C203.522 343.196 205.87 341.869 208.116 340.542C210.362 339.215 212.709 337.888 215.057 336.458C215.159 336.458 215.261 336.356 215.466 336.254C215.67 336.152 215.874 336.05 216.078 335.948C216.282 335.846 216.486 335.642 216.691 335.54C216.895 335.438 216.997 335.233 216.997 335.233C217.099 335.029 217.099 334.723 217.099 334.213C217.099 333.804 216.997 333.396 216.997 332.988L216.997 317.165C214.445 315.634 211.791 314.103 209.035 312.47C206.381 310.938 203.726 309.407 201.072 307.876C198.418 309.305 195.662 310.836 193.008 312.47C190.456 314.001 187.802 315.634 185.148 317.165ZM207.912 322.269C207.912 323.596 207.912 324.821 207.81 326.148C207.81 327.373 207.81 328.7 207.912 330.027C206.789 330.742 205.666 331.457 204.543 332.069C203.42 332.681 202.195 333.396 201.174 334.009C199.95 333.396 198.827 332.681 197.704 332.069C196.581 331.457 195.458 330.742 194.335 330.129C194.233 328.7 194.233 327.271 194.233 326.148C194.233 324.923 194.233 323.596 194.335 322.269C195.356 321.657 196.479 320.942 197.704 320.228C198.929 319.513 200.052 318.901 201.174 318.186C202.297 318.799 203.42 319.513 204.543 320.126C205.768 320.84 206.891 321.555 207.912 322.269ZM194.335 330.027C195.356 330.64 196.377 331.15 197.398 331.763C198.418 332.375 199.337 332.886 200.256 333.294C200.46 333.396 200.664 333.498 200.766 333.6C200.868 333.702 200.97 333.804 201.072 333.804L201.072 326.25C200.052 325.536 198.929 324.821 197.806 324.209C196.683 323.596 195.56 322.882 194.437 322.167L194.437 330.027L194.335 330.027ZM200.97 318.492C199.95 319.105 198.929 319.819 197.806 320.432C196.683 321.044 195.662 321.759 194.539 322.371C195.56 322.984 196.683 323.698 197.806 324.311C198.929 324.923 200.052 325.638 201.174 326.25C202.195 325.638 203.318 324.923 204.441 324.311C205.564 323.698 206.687 322.984 207.708 322.371C206.585 321.759 205.564 321.044 204.441 320.432C203.318 319.717 202.093 319.105 200.97 318.492ZM201.174 326.353L201.174 333.906C202.297 333.294 203.42 332.579 204.543 331.967C205.666 331.354 206.789 330.64 207.81 330.027C207.81 328.7 207.81 327.475 207.912 326.148C207.912 324.923 207.912 323.596 207.81 322.269C206.687 322.984 205.564 323.698 204.441 324.311C203.318 324.923 202.195 325.638 201.174 326.353Z" fill="#000000" fill-rule="evenodd" opacity="1" stroke="none"/>
<path d="M228.94 261.124C230.063 261.736 231.186 262.451 232.309 262.961C233.432 263.573 234.555 264.186 235.677 265.003L235.677 335.234L229.042 339.113L229.042 265.717L229.042 261.124L228.94 261.124Z" fill="#000000" fill-rule="evenodd" opacity="1" stroke="none"/>
</g>
<g opacity="1">
<path d="M228.838 195.384C228.226 218.454 219.855 240.299 198.112 255.203C158.811 282.254 103.994 260.715 93.2761 214.167C87.8658 190.79 90.0095 168.231 103.79 148.121C119.204 125.459 141.56 116.272 168.305 119.335C194.641 122.397 212.709 137.403 223.02 161.698C227.205 171.599 228.736 182.114 228.838 195.384ZM221.386 191.403C220.978 187.83 220.774 182.93 219.957 178.031C219.345 174.254 218.222 170.579 216.895 167.006C201.685 123.112 145.847 111.27 115.223 146.182C95.1135 169.047 93.174 196.201 104.913 223.558C119.613 258.061 161.976 270.311 193.008 249.486C212.914 236.114 220.672 216.208 221.386 191.403Z" fill="#aa7d50" fill-rule="evenodd" opacity="1" stroke="none"/>
<path d="M112.977 254.59C90.0095 240.81 77.1474 221.006 76.7391 193.853C76.3308 165.781 89.1929 145.263 112.875 130.87C94.1948 147.304 85.0076 168.027 85.0076 192.73C85.0076 217.637 94.2968 238.258 112.977 254.59Z" fill="#aa7d50" fill-rule="evenodd" opacity="1" stroke="none"/>
<path d="M206.074 254.488C244.456 223.864 243.436 160.779 206.176 131.176C223.224 138.321 241.904 162.514 242.823 189.974C243.946 223.15 222.713 247.343 206.074 254.488Z" fill="#aa7d50" fill-rule="evenodd" opacity="1" stroke="none"/>
</g>
<path d="M88.7845 326.863C88.7845 321.225 93.3548 316.655 98.9925 316.655C104.63 316.655 109.201 321.225 109.201 326.863C109.201 332.501 104.63 337.071 98.9925 337.071C93.3548 337.071 88.7845 332.501 88.7845 326.863Z" fill="#ffffff" fill-rule="evenodd" opacity="1" stroke="none"/>
<path d="M191.681 326.863C191.681 321.225 196.251 316.655 201.889 316.655C207.527 316.655 212.097 321.225 212.097 326.863C212.097 332.501 207.527 337.071 201.889 337.071C196.251 337.071 191.681 332.501 191.681 326.863Z" fill="#ffffff" fill-rule="evenodd" opacity="1" stroke="none"/>
<path d="M176.675 202.223L176.675 183.543L160.547 174.254L144.316 183.543L144.316 202.223L160.547 211.513L176.675 202.223Z" fill="#aa7d50" fill-rule="evenodd" opacity="1" stroke="none"/>
</g>
<path d="M327.651 201.101C332.143 198.753 338.982 198.753 343.576 201.101L389.614 225.293C392.37 226.723 393.799 228.866 394.105 231.01L394.105 352.587C394.003 354.935 392.574 357.385 389.614 358.916L343.576 383.109C339.084 385.457 332.245 385.457 327.651 383.109L281.613 358.916C278.653 357.385 277.224 354.935 277.224 352.587L277.224 231.01C277.428 228.764 278.857 226.723 281.613 225.293L327.651 201.101L327.651 201.101ZM386.858 298.893L343.576 321.657C339.084 324.005 332.245 324.005 327.651 321.657L284.472 298.995L284.472 352.485L327.651 375.045C330.101 376.372 332.653 377.597 335.103 377.801L335.614 377.801C338.166 377.801 340.718 376.474 343.27 375.249L386.858 352.281L386.858 298.893L386.858 298.893ZM269.772 349.933C269.772 354.629 270.283 357.691 271.405 359.835C272.324 361.672 273.651 362.999 276.101 364.632L276.203 364.735C276.714 365.143 277.326 365.449 278.041 365.96L278.857 366.47L281.511 368.001L277.734 374.126L274.774 372.391L274.264 372.084C273.447 371.574 272.732 371.166 272.018 370.655C265.076 365.96 262.422 360.856 262.32 350.239L262.32 349.933L269.772 349.933L269.772 349.933ZM332.041 266.228C331.735 266.33 331.428 266.432 331.122 266.636L285.084 290.829C285.084 290.829 284.982 290.829 284.982 290.931L285.084 290.931L285.186 291.033L331.224 315.226C331.53 315.328 331.837 315.532 332.143 315.634L332.143 266.228L332.041 266.228L332.041 266.228ZM339.289 266.228L339.289 315.634C339.595 315.532 339.901 315.43 340.207 315.226L386.245 291.033C386.245 291.033 386.347 291.033 386.347 290.931L386.245 290.931L386.143 290.829L340.105 266.636C339.901 266.534 339.595 266.33 339.289 266.228L339.289 266.228ZM386.858 239.687L345.617 261.43L386.858 283.173L386.858 239.687L386.858 239.687ZM284.472 239.687L284.472 282.969L325.712 261.328L284.472 239.687L284.472 239.687ZM340.207 207.429C337.859 206.205 333.47 206.205 331.122 207.429L285.084 231.622C285.084 231.622 284.982 231.622 284.982 231.725L285.084 231.725L285.186 231.827L331.224 256.02C333.572 257.244 337.961 257.244 340.309 256.02L386.347 231.827C386.347 231.827 386.449 231.827 386.449 231.725L386.347 231.725L386.245 231.622L340.207 207.429ZM393.697 210.084L396.657 211.819L397.168 212.125C397.984 212.636 398.699 213.044 399.414 213.554C406.355 218.25 409.009 223.354 409.111 233.97L409.111 234.277L401.863 234.277C401.863 229.581 401.353 226.518 400.23 224.375C399.311 222.537 397.984 221.21 395.535 219.577L395.432 219.475C394.922 219.067 394.31 218.76 393.595 218.25L392.778 217.74L390.124 216.208L393.697 210.084L393.697 210.084Z" fill="#1969ff" fill-rule="evenodd" opacity="1" stroke="none"/>
</g>
</svg>
