<?xml version="1.0" encoding="UTF-8" standalone="no"?>
<!DOCTYPE svg PUBLIC "-//W3C//DTD SVG 1.1//EN" "http://www.w3.org/Graphics/SVG/1.1/DTD/svg11.dtd"
[
<!ATTLIST g
  xmlns:vectornator CDATA #FIXED "http://vectornator.io"
  vectornator:layerName CDATA #IMPLIED >
<!ATTLIST g
  xmlns:vectornator CDATA #FIXED "http://vectornator.io"
  vectornator:mask CDATA #IMPLIED >
<!ATTLIST text
  xmlns:vectornator CDATA #FIXED "http://vectornator.io"
  vectornator:width CDATA #IMPLIED >
<!ATTLIST text
  xmlns:vectornator CDATA #FIXED "http://vectornator.io"
  vectornator:text CDATA #IMPLIED >

<!ATTLIST path
  xmlns:vectornator CDATA #FIXED "http://vectornator.io"
  vectornator:blendMode CDATA #IMPLIED >
<!ATTLIST path
  xmlns:vectornator CDATA #FIXED "http://vectornator.io"
  vectornator:shadowColor CDATA #IMPLIED >
<!ATTLIST path
  xmlns:vectornator CDATA #FIXED "http://vectornator.io"
  vectornator:shadowOpacity CDATA #IMPLIED >
<!ATTLIST path
  xmlns:vectornator CDATA #FIXED "http://vectornator.io"
  vectornator:shadowRadius CDATA #IMPLIED >
<!ATTLIST path
  xmlns:vectornator CDATA #FIXED "http://vectornator.io"
  vectornator:shadowOffset CDATA #IMPLIED >
<!ATTLIST path
  xmlns:vectornator CDATA #FIXED "http://vectornator.io"
  vectornator:shadowAngle CDATA #IMPLIED >

<!ATTLIST image
  xmlns:vectornator CDATA #FIXED "http://vectornator.io"
  vectornator:blendMode CDATA #IMPLIED >
<!ATTLIST image
  xmlns:vectornator CDATA #FIXED "http://vectornator.io"
  vectornator:shadowColor CDATA #IMPLIED >
<!ATTLIST image
  xmlns:vectornator CDATA #FIXED "http://vectornator.io"
  vectornator:shadowOpacity CDATA #IMPLIED >
<!ATTLIST image
  xmlns:vectornator CDATA #FIXED "http://vectornator.io"
  vectornator:shadowRadius CDATA #IMPLIED >
<!ATTLIST image
  xmlns:vectornator CDATA #FIXED "http://vectornator.io"
  vectornator:shadowOffset CDATA #IMPLIED >
<!ATTLIST image
  xmlns:vectornator CDATA #FIXED "http://vectornator.io"
  vectornator:shadowAngle CDATA #IMPLIED >

<!ATTLIST g
  xmlns:vectornator CDATA #FIXED "http://vectornator.io"
  vectornator:blendMode CDATA #IMPLIED >
<!ATTLIST g
  xmlns:vectornator CDATA #FIXED "http://vectornator.io"
  vectornator:shadowColor CDATA #IMPLIED >
<!ATTLIST g
  xmlns:vectornator CDATA #FIXED "http://vectornator.io"
  vectornator:shadowOpacity CDATA #IMPLIED >
<!ATTLIST g
  xmlns:vectornator CDATA #FIXED "http://vectornator.io"
  vectornator:shadowRadius CDATA #IMPLIED >
<!ATTLIST g
  xmlns:vectornator CDATA #FIXED "http://vectornator.io"
  vectornator:shadowOffset CDATA #IMPLIED >
<!ATTLIST g
  xmlns:vectornator CDATA #FIXED "http://vectornator.io"
  vectornator:shadowAngle CDATA #IMPLIED >

<!ENTITY % SVG.filter.extra.content  "| feDropShadow" >
<!ELEMENT feDropShadow EMPTY>
<!ATTLIST feDropShadow
  xmlns:svg CDATA #FIXED "http://www.w3.org/Graphics/SVG/1.1/DTD/svg11.dtd"
  dx CDATA #IMPLIED>
<!ATTLIST feDropShadow
  xmlns:svg CDATA #FIXED "http://www.w3.org/Graphics/SVG/1.1/DTD/svg11.dtd"
  dy CDATA #IMPLIED>
<!ATTLIST feDropShadow
  xmlns:svg CDATA #FIXED "http://www.w3.org/Graphics/SVG/1.1/DTD/svg11.dtd"
  stdDeviation CDATA #IMPLIED>
<!ATTLIST feDropShadow
  xmlns:svg CDATA #FIXED "http://www.w3.org/Graphics/SVG/1.1/DTD/svg11.dtd"
  flood-opacity CDATA #IMPLIED>
<!ATTLIST feDropShadow
  xmlns:svg CDATA #FIXED "http://www.w3.org/Graphics/SVG/1.1/DTD/svg11.dtd"
  in CDATA #IMPLIED>
<!ATTLIST feDropShadow
  xmlns:svg CDATA #FIXED "http://www.w3.org/Graphics/SVG/1.1/DTD/svg11.dtd"
  result CDATA #IMPLIED>
<!ATTLIST feDropShadow
  xmlns:svg CDATA #FIXED "http://www.w3.org/Graphics/SVG/1.1/DTD/svg11.dtd"
  flood-color CDATA #IMPLIED>
]
>
<!-- Created with Vectornator (http://vectornator.io/) -->
<svg height="100%" stroke-miterlimit="10" style="fill-rule:nonzero;clip-rule:evenodd;stroke-linecap:round;stroke-linejoin:round;" version="1.1" viewBox="0 0 500 500" width="100%" xml:space="preserve" xmlns="http://www.w3.org/2000/svg" xmlns:vectornator="http://vectornator.io" xmlns:xlink="http://www.w3.org/1999/xlink">
<defs/>
<g id="Слой-1" vectornator:layerName="Слой 1">
<path d="M464.894 373.76L464.894 127.28L251.424 4.03928L37.9546 127.28L37.9546 373.76L251.424 497.001L464.894 373.76Z" fill="none" fill-rule="evenodd" opacity="1" stroke="#aa7d50" stroke-linecap="butt" stroke-linejoin="miter" stroke-width="5"/>
<path d="M463.172 372.989L463.172 128.25L251.178 5.91239L39.2477 128.25L39.2477 372.989L251.178 495.39L463.172 372.989Z" fill="#ffffff" fill-rule="evenodd" opacity="1" stroke="#aa7d50" stroke-linecap="butt" stroke-linejoin="miter" stroke-width="5"/>
<g opacity="1">
<path d="M167.614 342.644C169.937 343.928 172.321 345.334 174.705 346.679C177.089 348.085 179.412 349.491 181.796 350.897C182.591 351.386 183.386 351.814 184.18 352.242C184.975 352.67 185.77 353.159 186.442 353.709C185.525 354.198 184.608 354.687 183.691 355.238C182.774 355.727 181.857 356.277 181.001 356.827C178.74 355.604 176.478 354.321 174.216 353.037C171.954 351.753 169.753 350.469 167.614 349.247C165.352 350.469 163.09 351.753 160.889 353.037C158.689 354.321 156.427 355.604 154.043 356.827C154.348 357.071 154.715 357.316 155.082 357.499C155.449 357.683 155.754 357.927 156.121 358.05C158.444 359.456 160.828 360.862 163.212 362.145C165.596 363.49 167.919 364.835 170.303 366.241C172.321 367.403 174.399 368.564 176.417 369.664C178.434 370.765 180.512 371.987 182.591 373.21C183.202 373.577 183.875 374.005 184.547 374.372C185.219 374.799 185.892 375.166 186.503 375.533C183.386 377.306 180.207 379.14 177.089 380.974C173.971 382.808 170.793 384.642 167.675 386.414C164.435 384.642 161.317 382.808 158.199 380.974C155.082 379.14 151.903 377.306 148.724 375.533C149.58 374.922 150.497 374.372 151.475 373.821C152.453 373.332 153.37 372.782 154.348 372.232C156.549 373.577 158.75 374.861 160.95 376.144C163.151 377.428 165.413 378.712 167.736 380.057C168.959 379.262 170.242 378.528 171.526 377.795C172.81 377.061 174.094 376.328 175.316 375.533C174.766 375.166 174.216 374.799 173.666 374.494C173.115 374.188 172.565 373.882 172.015 373.455C168.103 371.193 164.19 368.931 160.278 366.73C156.366 364.529 152.453 362.268 148.541 359.883C148.541 358.783 148.541 357.683 148.602 356.644C148.663 355.543 148.602 354.565 148.541 353.526C151.781 351.631 154.96 349.797 158.138 347.963C161.195 346.251 164.435 344.478 167.614 342.644Z" fill="#000000" fill-rule="evenodd" opacity="1" stroke="none"/>
<path d="M209.244 342.828C211.506 344.051 213.768 345.334 216.03 346.679C218.23 348.024 220.492 349.308 222.632 350.592C224.894 349.369 227.155 348.085 229.417 346.74C231.618 345.457 233.88 344.112 236.019 342.828C239.259 344.723 242.438 346.557 245.617 348.33C248.796 350.164 251.975 351.998 255.215 353.831L255.215 366.119L255.215 375.778L249.59 372.538L249.59 364.101L249.59 357.071C248.49 356.399 247.39 355.727 246.228 355.054C245.128 354.443 243.966 353.77 242.866 353.159C241.705 352.548 240.543 351.875 239.443 351.203C238.342 350.53 237.242 349.858 236.142 349.247C233.88 350.53 231.618 351.875 229.356 353.098C227.155 354.382 224.894 355.604 222.571 356.888C220.37 355.665 218.169 354.382 215.968 353.098C213.768 351.814 211.506 350.53 209.366 349.247C207.104 350.53 204.843 351.875 202.581 353.159C200.38 354.443 198.118 355.727 195.979 357.071L195.979 372.476C195.062 373.027 194.083 373.577 193.105 374.066C192.127 374.555 191.149 375.105 190.232 375.594L190.232 342.95C191.21 343.439 192.188 343.928 193.166 344.478C194.145 345.029 195.062 345.579 195.979 346.19L195.979 350.53C198.24 349.308 200.502 348.024 202.642 346.679C204.843 345.457 207.043 344.112 209.244 342.828Z" fill="#000000" fill-rule="evenodd" opacity="1" stroke="none"/>
<path d="M296.784 352.853C293.666 354.748 290.487 356.582 287.37 358.355C284.252 360.189 281.012 362.023 277.833 363.857C276.977 363.307 276.06 362.757 275.143 362.206C274.226 361.656 273.309 361.106 272.392 360.556C274.593 359.272 276.794 357.927 278.995 356.643C281.195 355.36 283.457 354.076 285.597 352.731C284.374 351.936 283.09 351.203 281.807 350.469C280.523 349.736 279.239 349.063 278.016 348.391C275.755 349.613 273.493 350.897 271.231 352.242C269.03 353.587 266.768 354.871 264.445 356.154L264.445 371.559C266.707 372.904 268.969 374.188 271.231 375.472C273.432 376.756 275.693 378.039 277.833 379.384C280.095 378.039 282.357 376.756 284.496 375.472C286.697 374.188 288.898 372.904 291.16 371.559L296.784 374.799C293.666 376.694 290.487 378.528 287.37 380.301C284.252 382.074 281.012 383.908 277.833 385.681C274.715 383.908 271.537 382.074 268.419 380.24C265.301 378.406 262.061 376.572 258.882 374.799L258.882 352.853C261.572 351.325 264.262 349.736 267.074 348.085C269.886 346.435 272.637 344.906 275.388 343.317C275.755 343.072 276.183 342.828 276.549 342.583C276.916 342.339 277.344 342.094 277.711 341.911C277.955 341.85 278.2 341.911 278.444 342.033C278.689 342.217 278.995 342.339 279.422 342.522C282.357 344.234 285.23 345.946 288.225 347.657C291.099 349.552 293.972 351.203 296.784 352.853Z" fill="#000000" fill-rule="evenodd" opacity="1" stroke="none"/>
<path d="M301.369 309.817C302.286 310.367 303.264 310.917 304.181 311.406C305.098 311.896 306.076 312.446 306.993 313.118L306.993 372.415L301.369 375.655L301.369 313.729L301.369 309.817Z" fill="#000000" fill-rule="evenodd" opacity="1" stroke="none"/>
<path d="M318.791 357.499C317.874 356.949 316.896 356.399 315.918 355.849C314.94 355.299 314.023 354.748 313.167 354.198C316.285 352.425 319.463 350.592 322.52 348.758C325.638 346.924 328.755 345.09 331.995 343.317C332.056 344.417 332.056 345.518 332.056 346.557C331.995 347.657 331.995 348.696 331.995 349.675C331.445 350.041 330.895 350.408 330.345 350.714C329.795 351.019 329.244 351.386 328.694 351.692C327.044 352.609 325.393 353.587 323.743 354.504C322.092 355.421 320.441 356.46 318.791 357.499ZM332.179 321.371C332.179 321.249 332.24 321.187 332.362 321.187C333.218 321.799 334.135 322.349 335.052 322.899C335.969 323.388 336.886 323.938 337.803 324.489C337.864 327.545 337.864 330.541 337.864 333.475C337.803 336.409 337.803 339.343 337.803 342.217L337.803 360.556L337.803 384.03C336.886 384.519 335.908 385.008 334.991 385.559C334.074 386.109 333.096 386.659 332.179 387.087L332.179 377.122L332.179 359.394C332.179 359.394 332.179 321.371 332.179 321.371ZM337.925 346.618C340.126 347.841 342.265 349.124 344.466 350.408C346.667 351.692 348.806 352.976 351.007 354.198C350.151 354.748 349.234 355.299 348.256 355.849C347.278 356.399 346.422 356.949 345.505 357.499C344.16 356.827 342.877 356.093 341.654 355.299C340.37 354.565 339.148 353.831 337.864 353.098L337.864 346.618L337.925 346.618Z" fill="#000000" fill-rule="evenodd" opacity="1" stroke="none"/>
</g>
<g opacity="1">
<path d="M251.608 79.0471L276.794 94.9412L186.564 146.352L206.249 159.19L297.823 105.761L355.225 139.934L355.225 153.933L251.608 214.575L226.727 198.497L316.651 146.842L295.378 134.676L205.454 188.105L147.624 153.566L147.624 139.934L251.608 79.0471Z" fill="#aa7d50" fill-rule="evenodd" opacity="1" stroke="none"/>
<path d="M229.539 270.815L207.043 285.242L147.624 251.926L147.624 169.216L251.608 229.858L355.225 169.216L355.225 251.498L251.424 311.345L227.155 296.124L328.327 237.866L328.327 214.575L251.608 257.978L174.521 214.575L174.521 237.866L229.539 270.815Z" fill="#a6a8ab" fill-rule="evenodd" opacity="1" stroke="none"/>
</g>
</g>
</svg>
