<?xml version="1.0" encoding="UTF-8" standalone="no"?>
<!DOCTYPE svg PUBLIC "-//W3C//DTD SVG 1.1//EN" "http://www.w3.org/Graphics/SVG/1.1/DTD/svg11.dtd"
[
<!ATTLIST g
  xmlns:vectornator CDATA #FIXED "http://vectornator.io"
  vectornator:layerName CDATA #IMPLIED >
<!ATTLIST g
  xmlns:vectornator CDATA #FIXED "http://vectornator.io"
  vectornator:mask CDATA #IMPLIED >
<!ATTLIST text
  xmlns:vectornator CDATA #FIXED "http://vectornator.io"
  vectornator:width CDATA #IMPLIED >
<!ATTLIST text
  xmlns:vectornator CDATA #FIXED "http://vectornator.io"
  vectornator:text CDATA #IMPLIED >

<!ATTLIST path
  xmlns:vectornator CDATA #FIXED "http://vectornator.io"
  vectornator:blendMode CDATA #IMPLIED >
<!ATTLIST path
  xmlns:vectornator CDATA #FIXED "http://vectornator.io"
  vectornator:shadowColor CDATA #IMPLIED >
<!ATTLIST path
  xmlns:vectornator CDATA #FIXED "http://vectornator.io"
  vectornator:shadowOpacity CDATA #IMPLIED >
<!ATTLIST path
  xmlns:vectornator CDATA #FIXED "http://vectornator.io"
  vectornator:shadowRadius CDATA #IMPLIED >
<!ATTLIST path
  xmlns:vectornator CDATA #FIXED "http://vectornator.io"
  vectornator:shadowOffset CDATA #IMPLIED >
<!ATTLIST path
  xmlns:vectornator CDATA #FIXED "http://vectornator.io"
  vectornator:shadowAngle CDATA #IMPLIED >

<!ATTLIST image
  xmlns:vectornator CDATA #FIXED "http://vectornator.io"
  vectornator:blendMode CDATA #IMPLIED >
<!ATTLIST image
  xmlns:vectornator CDATA #FIXED "http://vectornator.io"
  vectornator:shadowColor CDATA #IMPLIED >
<!ATTLIST image
  xmlns:vectornator CDATA #FIXED "http://vectornator.io"
  vectornator:shadowOpacity CDATA #IMPLIED >
<!ATTLIST image
  xmlns:vectornator CDATA #FIXED "http://vectornator.io"
  vectornator:shadowRadius CDATA #IMPLIED >
<!ATTLIST image
  xmlns:vectornator CDATA #FIXED "http://vectornator.io"
  vectornator:shadowOffset CDATA #IMPLIED >
<!ATTLIST image
  xmlns:vectornator CDATA #FIXED "http://vectornator.io"
  vectornator:shadowAngle CDATA #IMPLIED >

<!ATTLIST g
  xmlns:vectornator CDATA #FIXED "http://vectornator.io"
  vectornator:blendMode CDATA #IMPLIED >
<!ATTLIST g
  xmlns:vectornator CDATA #FIXED "http://vectornator.io"
  vectornator:shadowColor CDATA #IMPLIED >
<!ATTLIST g
  xmlns:vectornator CDATA #FIXED "http://vectornator.io"
  vectornator:shadowOpacity CDATA #IMPLIED >
<!ATTLIST g
  xmlns:vectornator CDATA #FIXED "http://vectornator.io"
  vectornator:shadowRadius CDATA #IMPLIED >
<!ATTLIST g
  xmlns:vectornator CDATA #FIXED "http://vectornator.io"
  vectornator:shadowOffset CDATA #IMPLIED >
<!ATTLIST g
  xmlns:vectornator CDATA #FIXED "http://vectornator.io"
  vectornator:shadowAngle CDATA #IMPLIED >

<!ENTITY % SVG.filter.extra.content  "| feDropShadow" >
<!ELEMENT feDropShadow EMPTY>
<!ATTLIST feDropShadow
  xmlns:svg CDATA #FIXED "http://www.w3.org/Graphics/SVG/1.1/DTD/svg11.dtd"
  dx CDATA #IMPLIED>
<!ATTLIST feDropShadow
  xmlns:svg CDATA #FIXED "http://www.w3.org/Graphics/SVG/1.1/DTD/svg11.dtd"
  dy CDATA #IMPLIED>
<!ATTLIST feDropShadow
  xmlns:svg CDATA #FIXED "http://www.w3.org/Graphics/SVG/1.1/DTD/svg11.dtd"
  stdDeviation CDATA #IMPLIED>
<!ATTLIST feDropShadow
  xmlns:svg CDATA #FIXED "http://www.w3.org/Graphics/SVG/1.1/DTD/svg11.dtd"
  flood-opacity CDATA #IMPLIED>
<!ATTLIST feDropShadow
  xmlns:svg CDATA #FIXED "http://www.w3.org/Graphics/SVG/1.1/DTD/svg11.dtd"
  in CDATA #IMPLIED>
<!ATTLIST feDropShadow
  xmlns:svg CDATA #FIXED "http://www.w3.org/Graphics/SVG/1.1/DTD/svg11.dtd"
  result CDATA #IMPLIED>
<!ATTLIST feDropShadow
  xmlns:svg CDATA #FIXED "http://www.w3.org/Graphics/SVG/1.1/DTD/svg11.dtd"
  flood-color CDATA #IMPLIED>
]
>
<!-- Created with Vectornator (http://vectornator.io/) -->
<svg height="100%" stroke-miterlimit="10" style="fill-rule:nonzero;clip-rule:evenodd;stroke-linecap:round;stroke-linejoin:round;" version="1.1" viewBox="0 0 500 500" width="100%" xml:space="preserve" xmlns="http://www.w3.org/2000/svg" xmlns:vectornator="http://vectornator.io" xmlns:xlink="http://www.w3.org/1999/xlink">
<defs/>
<g id="Слой-1" vectornator:layerName="Слой 1">
<path d="M466.673 373.15L466.673 127.012L253.468 3.9752L40.3263 127.012L40.3263 373.15L253.468 496.25L466.673 373.15Z" fill="#ffffff" fill-rule="evenodd" opacity="1" stroke="#aa7d50" stroke-linecap="butt" stroke-linejoin="miter" stroke-width="5"/>
<g opacity="1">
<g opacity="1">
<path d="M172.945 334.57C178.085 337.425 183.161 340.281 188.11 343.199C193.06 346.118 198.009 349.037 203.085 351.956C202.958 357.477 202.958 363.06 203.022 368.517C203.085 374.038 203.085 379.622 203.085 385.269L203.085 386.221C202.958 386.475 202.705 386.729 202.324 386.983C201.943 387.173 201.499 387.363 201.118 387.49C196.55 390.219 191.918 392.884 187.222 395.549C182.526 398.214 177.831 400.879 173.199 403.607C168.122 400.752 163.109 397.897 158.16 394.978C153.211 392.059 148.134 389.14 143.122 386.221C143.248 380.32 143.248 374.736 143.185 369.469C143.122 364.266 143.122 359.063 143.122 353.86L143.122 351.893C143.248 351.766 143.502 351.575 144.01 351.258C144.454 350.941 144.835 350.75 145.089 350.623C147.309 349.354 149.467 348.149 151.561 346.943C153.655 345.738 155.812 344.532 158.033 343.263C160.635 341.676 163.173 340.217 165.648 338.758C168.059 337.489 170.534 336.093 172.945 334.57ZM151.942 357.159L151.942 381.399C155.558 383.493 159.112 385.523 162.602 387.49C166.092 389.521 169.582 391.551 173.008 393.582C176.244 391.742 179.354 389.965 182.399 388.188C185.445 386.475 188.491 384.635 191.6 382.795C191.727 382.731 191.918 382.668 192.171 382.477C192.425 382.35 192.742 382.16 193.06 382.033C193.377 381.843 193.631 381.716 193.885 381.525C194.138 381.335 194.265 381.208 194.329 381.081C194.456 380.828 194.456 380.383 194.392 379.749C194.329 379.178 194.329 378.607 194.329 378.099L194.329 357.032C190.902 354.938 187.412 352.908 183.795 350.814C180.179 348.72 176.689 346.753 173.262 344.786C169.645 346.753 166.092 348.783 162.602 350.814C159.048 352.971 155.495 355.065 151.942 357.159ZM182.273 364.012C182.273 365.725 182.273 367.439 182.209 369.152C182.146 370.865 182.209 372.578 182.273 374.292C180.813 375.244 179.29 376.195 177.767 377.084C176.244 377.972 174.722 378.797 173.262 379.685C171.676 378.797 170.153 377.972 168.63 377.084C167.107 376.259 165.648 375.37 164.188 374.482C164.061 372.515 163.998 370.738 163.998 369.152C163.998 367.566 164.061 365.789 164.188 363.949C165.521 363.06 167.044 362.172 168.63 361.284C170.216 360.332 171.803 359.444 173.262 358.619C174.722 359.507 176.244 360.332 177.767 361.22C179.29 362.109 180.813 362.997 182.273 364.012ZM164.188 374.292C165.521 375.053 166.853 375.815 168.186 376.64C169.518 377.401 170.787 378.099 171.993 378.734C172.247 378.86 172.501 378.987 172.628 379.178C172.754 379.368 172.881 379.495 173.008 379.495L173.008 369.469C171.676 368.517 170.216 367.566 168.693 366.804C167.171 365.979 165.648 365.091 164.188 364.139C164.188 364.139 164.188 374.292 164.188 374.292ZM172.945 358.872C171.612 359.761 170.153 360.586 168.757 361.474C167.297 362.299 165.838 363.187 164.379 364.076C165.711 364.964 167.171 365.789 168.693 366.677C170.216 367.502 171.739 368.391 173.199 369.279C174.531 368.391 175.991 367.566 177.513 366.677C179.036 365.852 180.432 364.964 181.828 364.076C180.369 363.187 178.909 362.362 177.513 361.474C176.054 360.586 174.531 359.697 172.945 358.872ZM173.199 369.406L173.199 379.432C174.658 378.543 176.181 377.718 177.704 376.83C179.227 376.005 180.686 375.117 182.019 374.228C182.019 372.515 182.019 370.802 182.082 369.089C182.146 367.375 182.082 365.662 182.019 363.949C180.559 364.901 179.1 365.852 177.64 366.614C176.181 367.502 174.658 368.391 173.199 369.406Z" fill="#000000" fill-rule="evenodd" opacity="1" stroke="none"/>
<path d="M218.949 321.308L218.949 345.547C222.629 343.58 226.246 341.613 229.673 339.519C233.099 337.489 236.589 335.458 240.016 333.491C243.823 335.585 247.63 337.615 251.374 339.709C255.181 341.803 258.925 343.961 262.732 346.182L270.093 350.56L270.093 385.206C268.824 385.967 267.618 386.729 266.349 387.427C265.143 388.125 263.811 388.886 262.478 389.648C258.798 391.742 255.054 393.836 251.31 395.993C247.567 398.15 243.886 400.371 240.142 402.592C235.066 399.673 230.053 396.754 225.104 393.899C220.154 391.044 215.078 388.125 210.065 385.206L210.065 349.672C210.065 344.024 210.065 338.313 210.129 332.666C210.192 326.955 210.129 321.562 210.065 316.358L210.065 316.105C213.301 317.881 216.22 319.595 218.949 321.308ZM240.269 343.58C236.652 345.547 233.099 347.578 229.609 349.608C226.119 351.702 222.566 353.733 218.949 355.827L218.949 380.066C222.566 382.16 226.119 384.191 229.609 386.158C233.099 388.188 236.589 390.219 240.016 392.249C243.632 390.282 247.186 388.252 250.676 386.221C254.166 384.191 257.719 382.097 261.336 380.003L261.336 355.763C257.719 353.669 254.229 351.639 250.803 349.672C247.376 347.705 243.823 345.674 240.269 343.58Z" fill="#000000" fill-rule="evenodd" opacity="1" stroke="none"/>
<path d="M308.101 334.57C313.241 337.425 318.318 340.281 323.267 343.199C328.216 346.118 333.166 349.037 338.242 351.956C338.115 357.477 338.115 363.06 338.179 368.517C338.242 374.038 338.242 379.622 338.242 385.269L338.242 386.221C338.115 386.475 337.861 386.729 337.481 386.983C337.1 387.173 336.656 387.363 336.275 387.49C331.706 390.219 327.074 392.884 322.379 395.549C317.683 398.214 312.987 400.879 308.355 403.607C303.279 400.752 298.266 397.897 293.317 394.978C288.367 392.059 283.291 389.14 278.278 386.221C278.405 380.32 278.405 374.736 278.342 369.469C278.278 364.266 278.278 359.063 278.278 353.86L278.278 351.893C278.405 351.766 278.659 351.575 279.167 351.258C279.611 350.941 279.991 350.75 280.245 350.623C282.466 349.354 284.624 348.149 286.718 346.943C288.812 345.738 290.969 344.532 293.19 343.263C295.791 341.676 298.33 340.217 300.804 338.758C303.216 337.489 305.627 336.093 308.101 334.57ZM287.035 357.159L287.035 381.399C290.652 383.493 294.205 385.523 297.695 387.49C301.185 389.521 304.675 391.551 308.101 393.582C311.338 391.742 314.447 389.965 317.493 388.188C320.538 386.475 323.584 384.635 326.693 382.795C326.82 382.731 327.011 382.668 327.265 382.477C327.518 382.35 327.836 382.16 328.153 382.033C328.47 381.843 328.724 381.716 328.978 381.525C329.232 381.335 329.358 381.208 329.422 381.081C329.549 380.828 329.549 380.383 329.485 379.749C329.422 379.178 329.422 378.607 329.422 378.099L329.422 357.032C325.995 354.938 322.505 352.908 318.889 350.814C315.272 348.72 311.782 346.753 308.355 344.786C304.738 346.753 301.185 348.783 297.695 350.814C294.142 352.971 290.588 355.065 287.035 357.159ZM317.366 364.012C317.366 365.725 317.366 367.439 317.302 369.152C317.239 370.865 317.302 372.578 317.366 374.292C315.906 375.244 314.383 376.195 312.86 377.084C311.338 377.972 309.815 378.797 308.355 379.685C306.769 378.797 305.246 377.972 303.723 377.084C302.2 376.259 300.741 375.37 299.281 374.482C299.154 372.515 299.091 370.738 299.091 369.152C299.091 367.566 299.154 365.789 299.281 363.949C300.614 363.06 302.137 362.172 303.723 361.284C305.309 360.332 306.896 359.444 308.355 358.619C309.815 359.507 311.338 360.332 312.86 361.22C314.447 362.109 315.906 362.997 317.366 364.012ZM299.281 374.292C300.614 375.053 301.946 375.815 303.279 376.64C304.611 377.401 305.881 378.099 307.086 378.734C307.34 378.86 307.594 378.987 307.721 379.178C307.848 379.368 307.975 379.495 308.101 379.495L308.101 369.469C306.769 368.517 305.309 367.566 303.787 366.804C302.264 365.979 300.741 365.091 299.281 364.139C299.281 364.139 299.281 374.292 299.281 374.292ZM308.101 358.872C306.769 359.761 305.31 360.586 303.914 361.474C302.454 362.299 300.995 363.187 299.535 364.076C300.868 364.964 302.327 365.789 303.85 366.677C305.373 367.502 306.896 368.391 308.355 369.279C309.688 368.391 311.147 367.566 312.67 366.677C314.193 365.852 315.589 364.964 316.985 364.076C315.526 363.187 314.066 362.362 312.67 361.474C311.147 360.586 309.688 359.697 308.101 358.872ZM308.355 369.406L308.355 379.432C309.815 378.543 311.338 377.718 312.861 376.83C314.383 376.005 315.843 375.117 317.175 374.228C317.175 372.515 317.175 370.802 317.239 369.089C317.302 367.375 317.239 365.662 317.175 363.949C315.716 364.901 314.257 365.852 312.797 366.614C311.274 367.502 309.815 368.391 308.355 369.406Z" fill="#000000" fill-rule="evenodd" opacity="1" stroke="none"/>
<path d="M345.222 282.664C346.681 283.553 348.141 284.378 349.6 285.139C351.06 285.901 352.519 286.789 353.979 287.804L353.979 381.145L345.159 386.285L345.159 288.819L345.159 282.664L345.222 282.664Z" fill="#000000" fill-rule="evenodd" opacity="1" stroke="none"/>
</g>
<g opacity="1">
<path d="M345.095 195.352C344.334 225.937 333.102 254.999 304.294 274.796C252.072 310.774 179.29 282.157 165.013 220.289C157.843 189.197 160.698 159.31 178.973 132.469C199.469 102.392 229.101 90.209 264.699 94.27C299.726 98.2676 323.648 118.256 337.354 150.554C342.938 163.815 344.968 177.712 345.095 195.352ZM335.196 190.149C334.689 185.453 334.371 178.854 333.293 172.318C332.468 167.305 330.945 162.419 329.295 157.597C309.053 99.3463 234.876 83.6098 194.202 129.868C167.488 160.262 164.95 196.24 180.432 232.663C199.913 278.476 256.323 294.784 297.505 267.118C323.965 249.478 334.244 223.018 335.196 190.149Z" fill="#aa7d50" fill-rule="evenodd" opacity="1" stroke="none"/>
<path d="M191.22 274.035C160.698 255.76 143.566 229.427 143.058 193.385C142.55 156.137 159.619 128.789 191.029 109.689C166.219 131.517 154.036 158.993 154.036 191.925C154.099 224.921 166.346 252.334 191.22 274.035Z" fill="#aa7d50" fill-rule="evenodd" opacity="1" stroke="none"/>
<path d="M314.954 273.908C365.971 233.297 364.575 149.411 315.145 110.07C337.734 119.525 362.545 151.632 363.75 188.182C365.273 232.219 336.973 264.39 314.954 273.908Z" fill="#aa7d50" fill-rule="evenodd" opacity="1" stroke="none"/>
</g>
<path d="M159.112 370.04C159.112 362.541 165.191 356.461 172.691 356.461C180.191 356.461 186.27 362.541 186.27 370.04C186.27 377.54 180.191 383.619 172.691 383.619C165.191 383.619 159.112 377.54 159.112 370.04Z" fill="#ffffff" fill-rule="evenodd" opacity="1" stroke="none"/>
<path d="M295.728 370.04C295.728 362.541 301.808 356.461 309.307 356.461C316.807 356.461 322.886 362.541 322.886 370.04C322.886 377.54 316.807 383.619 309.307 383.619C301.808 383.619 295.728 377.54 295.728 370.04Z" fill="#ffffff" fill-rule="evenodd" opacity="1" stroke="none"/>
<path d="M275.867 204.426L275.867 179.679L254.42 167.242L232.909 179.679L232.909 204.426L254.42 216.863L275.867 204.426Z" fill="#aa7d50" fill-rule="evenodd" opacity="1" stroke="none"/>
</g>
</g>
</svg>
